<svg width="64" height="64" viewBox="0 0 64 64" fill="none" xmlns="http://www.w3.org/2000/svg">
<rect x="0.5" y="0.5" width="63" height="63" rx="31.5" fill="white"/>
<path d="M25.0001 43.6667H39.0001C39.2078 43.6667 39.4061 43.6317 39.5974 43.5804L35.2119 39.1949C34.2606 39.8286 33.1431 40.1667 32.0001 40.1667C28.7836 40.1667 26.1667 37.5499 26.1667 34.3334C26.1667 31.1169 28.7836 28.5 32.0001 28.5C35.2166 28.5 37.8334 31.1169 37.8334 34.3334C37.8335 35.4764 37.4954 36.594 36.8616 37.5452L41.2471 41.9307C41.2984 41.7394 41.3334 41.541 41.3334 41.3334V27.3334L34.3334 20.3334H25.0001C24.3812 20.3334 23.7878 20.5792 23.3502 21.0168C22.9126 21.4544 22.6667 22.0479 22.6667 22.6667V41.3334C22.6667 41.9522 22.9126 42.5457 23.3502 42.9833C23.7878 43.4209 24.3812 43.6667 25.0001 43.6667Z" fill="#0D4A87"/>
<path d="M32 37.8334C33.933 37.8334 35.5 36.2664 35.5 34.3334C35.5 32.4004 33.933 30.8334 32 30.8334C30.067 30.8334 28.5 32.4004 28.5 34.3334C28.5 36.2664 30.067 37.8334 32 37.8334Z" fill="#0D4A87"/>
<rect x="0.5" y="0.5" width="63" height="63" rx="31.5" stroke="#B6D8FF"/>
</svg>
