<svg width="64" height="64" viewBox="0 0 64 64" fill="none" xmlns="http://www.w3.org/2000/svg">
<rect x="0.5" y="0.5" width="63" height="63" rx="31.5" fill="white"/>
<path fill-rule="evenodd" clip-rule="evenodd" d="M25.5014 37.3958C25.5014 38.9263 26.8444 40.1667 28.5 40.1667C29.8376 40.1667 30.9711 39.357 31.3572 38.2389C31.0661 37.9807 30.7967 37.6987 30.552 37.3958H25.5014ZM29.6786 36.0104H19.5047C18.6085 36.0104 18.0047 35.335 18 34.625C17.9977 34.2981 18.1224 33.9639 18.4036 33.6851C18.4599 33.6293 18.5192 33.5717 18.5809 33.5117C19.5132 32.6065 21.0038 31.1591 21.0038 27.0052C21.0038 23.6412 23.5575 20.9483 27.0009 20.2877V19.3854C27.0009 18.6204 27.6722 18 28.5 18C29.3278 18 29.9991 18.6204 29.9991 19.3854V20.2877C33.0921 20.8811 35.4672 23.1142 35.9186 26.0005C32.0901 26.0441 29 29.1612 29 33C29 34.0777 29.2435 35.0985 29.6786 36.0104Z" fill="#0D4A87"/>
<path fill-rule="evenodd" clip-rule="evenodd" d="M32.6666 32.9871C32.6666 31.1533 34.1532 29.6667 35.987 29.6667C37.8209 29.6667 39.3075 31.1533 39.3075 32.9871C39.3075 34.2099 38.6465 35.2782 37.6624 35.8545C37.3915 35.8537 37.1229 35.9626 36.9276 36.1724C36.6294 36.2603 36.3137 36.3075 35.987 36.3075C34.1532 36.3075 32.6666 34.8209 32.6666 32.9871ZM37.5807 38.0647C37.0775 38.2225 36.5422 38.3075 35.987 38.3075C33.0487 38.3075 30.6666 35.9255 30.6666 32.9871C30.6666 30.0487 33.0487 27.6667 35.987 27.6667C38.9254 27.6667 41.3075 30.0487 41.3075 32.9871C41.3075 34.5925 40.5964 36.0318 39.4721 37.0073L41.674 38.7374C42.1083 39.0786 42.1838 39.7072 41.8426 40.1415C41.5014 40.5758 40.8727 40.6512 40.4384 40.31L37.5807 38.0647Z" fill="#0D4A87"/>
<rect x="0.5" y="0.5" width="63" height="63" rx="31.5" stroke="#B6D8FF"/>
</svg>
