<svg width="24" height="24" viewBox="0 0 24 24" fill="none" xmlns="http://www.w3.org/2000/svg">
<path d="M18.8 5C18.8 4.20435 18.4839 3.44129 17.9213 2.87868C17.3587 2.31607 16.5956 2 15.8 2H5C4.20435 2 3.44129 2.31607 2.87868 2.87868C2.31607 3.44129 2 4.20435 2 5V5.6H18.8V5Z" fill="black"/>
<path d="M18.8 9.92V6.8H2V15.8C2 16.5956 2.31607 17.3587 2.87868 17.9213C3.44129 18.4839 4.20435 18.8 5 18.8H9.92C9.2854 17.5577 9.06072 16.1464 9.27821 14.7684C9.49571 13.3905 10.1442 12.117 11.1306 11.1306C12.117 10.1442 13.3905 9.49571 14.7684 9.27821C16.1464 9.06072 17.5577 9.2854 18.8 9.92Z" fill="black"/>
<path d="M15.8 21.2C17.2321 21.2 18.6056 20.6311 19.6183 19.6184C20.631 18.6057 21.2 17.2322 21.2 15.8C21.2 14.3678 20.631 12.9943 19.6183 11.9816C18.6056 10.9689 17.2321 10.4 15.8 10.4C14.3678 10.4 12.9943 10.9689 11.9816 11.9816C10.9689 12.9943 10.4 14.3678 10.4 15.8C10.4 17.2322 10.9689 18.6057 11.9816 19.6184C12.9943 20.6311 14.3678 21.2 15.8 21.2ZM15.05 18.806C15.05 18.6071 15.129 18.4163 15.2696 18.2757C15.4103 18.135 15.6011 18.056 15.8 18.056C15.9989 18.056 16.1896 18.135 16.3303 18.2757C16.4709 18.4163 16.55 18.6071 16.55 18.806C16.55 19.0049 16.4709 19.1957 16.3303 19.3363C16.1896 19.477 15.9989 19.556 15.8 19.556C15.6011 19.556 15.4103 19.477 15.2696 19.3363C15.129 19.1957 15.05 19.0049 15.05 18.806ZM13.5764 14.5496C13.5632 13.1852 14.5424 12.2036 15.8 12.2036C17.0372 12.2036 18.0236 13.2188 18.0236 14.5436C18.0236 15.2468 17.7668 15.6332 17.1512 16.1264L16.8188 16.3832C16.5236 16.616 16.424 16.7432 16.4036 16.9208L16.3904 17.108C16.3637 17.2555 16.2827 17.3877 16.1634 17.4785C16.0441 17.5693 15.8951 17.6122 15.7457 17.5987C15.5964 17.5851 15.4576 17.5161 15.3566 17.4053C15.2556 17.2945 15.1997 17.1499 15.2 17C15.2 16.316 15.452 15.9392 16.0592 15.4544L16.3928 15.1964C16.7384 14.9204 16.8248 14.786 16.8248 14.5436C16.8248 13.874 16.3664 13.4036 15.8 13.4036C15.2072 13.4036 14.7692 13.8428 14.7752 14.5376C14.776 14.6164 14.7612 14.6946 14.7318 14.7677C14.7024 14.8408 14.6588 14.9074 14.6037 14.9636C14.5485 15.0199 14.4828 15.0648 14.4103 15.0956C14.3378 15.1265 14.26 15.1428 14.1812 15.1436C14.1024 15.1444 14.0242 15.1297 13.9511 15.1002C13.878 15.0708 13.8114 15.0273 13.7551 14.9721C13.6989 14.917 13.654 14.8512 13.6231 14.7788C13.5923 14.7063 13.576 14.6284 13.5752 14.5496H13.5764Z" fill="black"/>
</svg>
