<svg width="22" height="24" viewBox="0 0 22 24" fill="none" xmlns="http://www.w3.org/2000/svg">
<g clip-path="url(#clip0_346:1006)">
<path d="M8.47059 6.35294V0H2.11765C1.55601 0 1.01738 0.223109 0.620244 0.620245C0.223108 1.01738 0 1.55601 0 2.11765V20.4706C0 21.0322 0.223108 21.5709 0.620244 21.968C1.01738 22.3651 1.55601 22.5882 2.11765 22.5882H8.83341C7.8377 21.385 7.22983 19.9084 7.08988 18.3529H6.35294C6.16573 18.3529 5.98618 18.2786 5.85381 18.1462C5.72143 18.0138 5.64706 17.8343 5.64706 17.6471C5.64706 17.4598 5.72143 17.2803 5.85381 17.1479C5.98618 17.0155 6.16573 16.9412 6.35294 16.9412H7.08988C7.13299 16.4635 7.22043 15.9909 7.35106 15.5294H6.35294C6.16573 15.5294 5.98618 15.455 5.85381 15.3227C5.72143 15.1903 5.64706 15.0107 5.64706 14.8235C5.64706 14.6363 5.72143 14.4568 5.85381 14.3244C5.98618 14.192 6.16573 14.1176 6.35294 14.1176H7.90588C8.16424 13.6122 8.47623 13.1393 8.83341 12.7059H6.35294C6.16573 12.7059 5.98618 12.6315 5.85381 12.4991C5.72143 12.3668 5.64706 12.1872 5.64706 12C5.64706 11.8128 5.72143 11.6332 5.85381 11.5009C5.98618 11.3685 6.16573 11.2941 6.35294 11.2941H10.3581C11.6216 10.4047 13.1619 9.88235 14.8235 9.88235C15.5576 9.88235 16.2678 9.984 16.9412 10.1746V8.47059H10.5882C10.0266 8.47059 9.48797 8.24748 9.09083 7.85034C8.6937 7.45321 8.47059 6.91458 8.47059 6.35294ZM2.82353 12C2.82353 11.8128 2.8979 11.6332 3.03028 11.5009C3.16266 11.3685 3.3422 11.2941 3.52941 11.2941C3.71662 11.2941 3.89617 11.3685 4.02855 11.5009C4.16092 11.6332 4.23529 11.8128 4.23529 12C4.23529 12.1872 4.16092 12.3668 4.02855 12.4991C3.89617 12.6315 3.71662 12.7059 3.52941 12.7059C3.3422 12.7059 3.16266 12.6315 3.03028 12.4991C2.8979 12.3668 2.82353 12.1872 2.82353 12ZM2.82353 14.8235C2.82353 14.6363 2.8979 14.4568 3.03028 14.3244C3.16266 14.192 3.3422 14.1176 3.52941 14.1176C3.71662 14.1176 3.89617 14.192 4.02855 14.3244C4.16092 14.4568 4.23529 14.6363 4.23529 14.8235C4.23529 15.0107 4.16092 15.1903 4.02855 15.3227C3.89617 15.455 3.71662 15.5294 3.52941 15.5294C3.3422 15.5294 3.16266 15.455 3.03028 15.3227C2.8979 15.1903 2.82353 15.0107 2.82353 14.8235ZM3.52941 16.9412C3.71662 16.9412 3.89617 17.0155 4.02855 17.1479C4.16092 17.2803 4.23529 17.4598 4.23529 17.6471C4.23529 17.8343 4.16092 18.0138 4.02855 18.1462C3.89617 18.2786 3.71662 18.3529 3.52941 18.3529C3.3422 18.3529 3.16266 18.2786 3.03028 18.1462C2.8979 18.0138 2.82353 17.8343 2.82353 17.6471C2.82353 17.4598 2.8979 17.2803 3.03028 17.1479C3.16266 17.0155 3.3422 16.9412 3.52941 16.9412ZM9.88235 6.35294V0.352941L16.5882 7.05882H10.5882C10.401 7.05882 10.2215 6.98445 10.0891 6.85208C9.95672 6.7197 9.88235 6.54015 9.88235 6.35294Z" fill="#02215A"/>
<path d="M14.8235 24C16.5084 24 18.1243 23.3307 19.3157 22.1393C20.5071 20.9479 21.1765 19.332 21.1765 17.6471C21.1765 15.9622 20.5071 14.3463 19.3157 13.1549C18.1243 11.9635 16.5084 11.2941 14.8235 11.2941C13.1386 11.2941 11.5227 11.9635 10.3313 13.1549C9.13991 14.3463 8.47058 15.9622 8.47058 17.6471C8.47058 19.332 9.13991 20.9479 10.3313 22.1393C11.5227 23.3307 13.1386 24 14.8235 24ZM13.9412 21.1835C13.9412 20.9495 14.0341 20.7251 14.1996 20.5596C14.3651 20.3941 14.5895 20.3012 14.8235 20.3012C15.0575 20.3012 15.282 20.3941 15.4474 20.5596C15.6129 20.7251 15.7059 20.9495 15.7059 21.1835C15.7059 21.4176 15.6129 21.642 15.4474 21.8075C15.282 21.9729 15.0575 22.0659 14.8235 22.0659C14.5895 22.0659 14.3651 21.9729 14.1996 21.8075C14.0341 21.642 13.9412 21.4176 13.9412 21.1835ZM12.2075 16.176C12.192 14.5708 13.344 13.416 14.8235 13.416C16.2791 13.416 17.4395 14.6104 17.4395 16.169C17.4395 16.9962 17.1374 17.4508 16.4132 18.0311L16.0221 18.3332C15.6748 18.6071 15.5576 18.7567 15.5336 18.9657L15.5181 19.1859C15.4867 19.3595 15.3914 19.515 15.251 19.6218C15.1107 19.7287 14.9354 19.7791 14.7597 19.7631C14.5841 19.7472 14.4207 19.6661 14.3019 19.5357C14.183 19.4054 14.1173 19.2352 14.1176 19.0588C14.1176 18.2541 14.4141 17.8108 15.1285 17.2405L15.5209 16.937C15.9275 16.6122 16.0292 16.4541 16.0292 16.169C16.0292 15.3812 15.4899 14.8278 14.8235 14.8278C14.1261 14.8278 13.6108 15.3445 13.6179 16.1619C13.6188 16.2546 13.6015 16.3466 13.5668 16.4326C13.5322 16.5186 13.481 16.5969 13.4161 16.6631C13.3512 16.7293 13.2739 16.7821 13.1886 16.8184C13.1034 16.8547 13.0117 16.8739 12.9191 16.8748C12.8264 16.8758 12.7344 16.8584 12.6484 16.8238C12.5624 16.7892 12.4841 16.738 12.4179 16.6731C12.3516 16.6082 12.2989 16.5309 12.2625 16.4456C12.2262 16.3603 12.207 16.2687 12.2061 16.176H12.2075Z" fill="#02215A"/>
</g>
<defs>
<clipPath id="clip0_346:1006">
<rect width="21.1765" height="24" fill="white"/>
</clipPath>
</defs>
</svg>
