<svg width="18" height="24" viewBox="0 0 18 24" fill="none" xmlns="http://www.w3.org/2000/svg">
<path fill-rule="evenodd" clip-rule="evenodd" d="M2.24988 1.5H4.62738C4.78254 1.06113 5.07 0.681193 5.45014 0.412542C5.83028 0.143892 6.28439 -0.000243768 6.74988 0H11.2499C11.7154 -0.000243768 12.1695 0.143892 12.5496 0.412542C12.9298 0.681193 13.2172 1.06113 13.3724 1.5H15.7499C16.3466 1.5 16.9189 1.73705 17.3409 2.15901C17.7628 2.58097 17.9999 3.15326 17.9999 3.75V21.75C17.9999 22.3467 17.7628 22.919 17.3409 23.341C16.9189 23.7629 16.3466 24 15.7499 24H2.24988C1.65314 24 1.08084 23.7629 0.658887 23.341C0.236931 22.919 -0.00012207 22.3467 -0.00012207 21.75V3.75C-0.00012207 3.15326 0.236931 2.58097 0.658887 2.15901C1.08084 1.73705 1.65314 1.5 2.24988 1.5ZM11.2499 1.5H6.74988C6.55097 1.5 6.3602 1.57902 6.21955 1.71967C6.07889 1.86032 5.99988 2.05109 5.99988 2.25C5.99988 2.44891 6.07889 2.63968 6.21955 2.78033C6.3602 2.92098 6.55097 3 6.74988 3H11.2499C11.4488 3 11.6396 2.92098 11.7802 2.78033C11.9209 2.63968 11.9999 2.44891 11.9999 2.25C11.9999 2.05109 11.9209 1.86032 11.7802 1.71967C11.6396 1.57902 11.4488 1.5 11.2499 1.5ZM7.71955 13.7197C7.57889 13.8603 7.49988 14.0511 7.49988 14.25C7.49988 14.4489 7.57889 14.6397 7.71955 14.7803C7.8602 14.921 8.05096 15 8.24988 15H13.4999C13.6988 15 13.8896 14.921 14.0302 14.7803C14.1709 14.6397 14.2499 14.4489 14.2499 14.25C14.2499 14.0511 14.1709 13.8603 14.0302 13.7197C13.8896 13.579 13.6988 13.5 13.4999 13.5H8.24988C8.05096 13.5 7.8602 13.579 7.71955 13.7197ZM7.71955 18.2197C7.57889 18.3603 7.49988 18.5511 7.49988 18.75C7.49988 18.9489 7.57889 19.1397 7.71955 19.2803C7.8602 19.421 8.05096 19.5 8.24988 19.5H13.4999C13.6988 19.5 13.8896 19.421 14.0302 19.2803C14.1709 19.1397 14.2499 18.9489 14.2499 18.75C14.2499 18.5511 14.1709 18.3603 14.0302 18.2197C13.8896 18.079 13.6988 18 13.4999 18H8.24988C8.05096 18 7.8602 18.079 7.71955 18.2197ZM5.67037 15.0455C5.88135 14.8345 5.99988 14.5484 5.99988 14.25C5.99988 13.9516 5.88135 13.6655 5.67037 13.4545C5.45939 13.2435 5.17325 13.125 4.87488 13.125C4.57651 13.125 4.29036 13.2435 4.07938 13.4545C3.8684 13.6655 3.74988 13.9516 3.74988 14.25C3.74988 14.5484 3.8684 14.8345 4.07938 15.0455C4.29036 15.2565 4.57651 15.375 4.87488 15.375C5.17325 15.375 5.45939 15.2565 5.67037 15.0455ZM4.07938 19.5455C4.29036 19.7565 4.57651 19.875 4.87488 19.875C5.17325 19.875 5.45939 19.7565 5.67037 19.5455C5.88135 19.3345 5.99988 19.0484 5.99988 18.75C5.99988 18.4516 5.88135 18.1655 5.67037 17.9545C5.45939 17.7435 5.17325 17.625 4.87488 17.625C4.57651 17.625 4.29036 17.7435 4.07938 17.9545C3.8684 18.1655 3.74988 18.4516 3.74988 18.75C3.74988 19.0484 3.8684 19.3345 4.07938 19.5455ZM5.36609 6.85645C5.36609 7.8916 5.33777 8.95703 5.28113 10.0527C5.64832 10.0605 6.10828 10.0986 6.66101 10.167C6.64929 9.99121 6.64343 9.80957 6.64343 9.62207L6.67859 6.58105L7.75378 6.64551C7.75378 6.24707 7.77527 5.91113 7.81824 5.6377L5.95789 5.66699L4.17664 5.58496L4.1239 6.84473L4.36707 6.83887C4.53699 6.83496 4.63757 6.83301 4.66882 6.83301C4.77429 6.83301 4.9657 6.83887 5.24304 6.85059C5.3075 6.85254 5.34851 6.85449 5.36609 6.85645ZM10.0712 9.41113L9.23328 9.47266L9.22449 8.93066C9.51355 8.84277 9.80945 8.78906 10.1122 8.76953L10.1151 8.86621C10.119 8.99707 10.1044 9.17871 10.0712 9.41113ZM9.0282 10.1934C9.49109 10.1934 9.90125 10.0693 10.2587 9.82129L10.4139 10.1553C10.7889 10.0908 11.0292 10.0586 11.1346 10.0586C11.1522 10.0586 11.2772 10.0674 11.5096 10.085C11.412 9.58691 11.3632 9.20508 11.3632 8.93945C11.3632 8.8418 11.368 8.69531 11.3778 8.5C11.3876 8.30469 11.3925 8.1582 11.3925 8.06055C11.3925 7.27734 10.8778 6.88574 9.84851 6.88574C9.45789 6.88574 9.1073 6.95801 8.79675 7.10254C8.39441 7.28613 8.19324 7.55176 8.19324 7.89941V7.96387C8.41394 7.9541 8.57996 7.94922 8.69128 7.94922C8.86902 7.94922 9.08289 7.96289 9.33289 7.99023L9.3446 7.58301C9.39148 7.5791 9.43835 7.57715 9.48523 7.57715C9.745 7.57715 10.0321 7.62891 10.3466 7.73242C10.3641 7.81641 10.3729 7.92578 10.3729 8.06055V8.16309C9.37097 8.23535 8.73621 8.33789 8.46863 8.4707C8.33191 8.53906 8.22156 8.67383 8.13757 8.875C8.06335 9.05078 8.02625 9.22559 8.02625 9.39941C8.02625 9.6709 8.12976 9.87598 8.33679 10.0146C8.51257 10.1338 8.74304 10.1934 9.0282 10.1934ZM13.4667 7.90527L13.0536 7.08496H11.8348L12.7108 8.51758L12.0868 9.49609L11.7206 10.041L12.6757 10.1934L12.7899 9.95898L13.244 9.23242L13.4315 9.58691L13.6278 10.0117H14.9725L14.0731 8.42676C14.2372 8.0791 14.5087 7.64941 14.8876 7.1377L13.9413 7.12012L13.6835 7.53906L13.4667 7.90527Z" fill="#02215A"/>
</svg>
