<svg width="24" height="24" viewBox="0 0 24 24" fill="none" xmlns="http://www.w3.org/2000/svg">
<path d="M8.50199 3.59999H6.59999C6.1226 3.59999 5.66476 3.78964 5.3272 4.1272C4.98963 4.46477 4.79999 4.9226 4.79999 5.39999V19.8C4.79999 20.2774 4.98963 20.7352 5.3272 21.0728C5.66476 21.4104 6.1226 21.6 6.59999 21.6H17.4C17.8774 21.6 18.3352 21.4104 18.6728 21.0728C19.0103 20.7352 19.2 20.2774 19.2 19.8V5.39999C19.2 4.9226 19.0103 4.46477 18.6728 4.1272C18.3352 3.78964 17.8774 3.59999 17.4 3.59999H15.498C15.3739 3.2489 15.1439 2.94495 14.8398 2.73003C14.5357 2.51511 14.1724 2.3998 13.8 2.39999H10.2C9.8276 2.3998 9.46431 2.51511 9.1602 2.73003C8.85609 2.94495 8.62612 3.2489 8.50199 3.59999ZM10.2 3.59999H13.8C13.9591 3.59999 14.1117 3.66321 14.2243 3.77573C14.3368 3.88825 14.4 4.04086 14.4 4.19999C14.4 4.35912 14.3368 4.51174 14.2243 4.62426C14.1117 4.73678 13.9591 4.79999 13.8 4.79999H10.2C10.0409 4.79999 9.88825 4.73678 9.77572 4.62426C9.6632 4.51174 9.59999 4.35912 9.59999 4.19999C9.59999 4.04086 9.6632 3.88825 9.77572 3.77573C9.88825 3.66321 10.0409 3.59999 10.2 3.59999ZM10.8 10.2C10.8 10.0409 10.8632 9.88825 10.9757 9.77573C11.0882 9.66321 11.2409 9.59999 11.4 9.59999H15.6C15.7591 9.59999 15.9117 9.66321 16.0243 9.77573C16.1368 9.88825 16.2 10.0409 16.2 10.2C16.2 10.3591 16.1368 10.5117 16.0243 10.6243C15.9117 10.7368 15.7591 10.8 15.6 10.8H11.4C11.2409 10.8 11.0882 10.7368 10.9757 10.6243C10.8632 10.5117 10.8 10.3591 10.8 10.2ZM10.8 13.8C10.8 13.6409 10.8632 13.4883 10.9757 13.3757C11.0882 13.2632 11.2409 13.2 11.4 13.2H15.6C15.7591 13.2 15.9117 13.2632 16.0243 13.3757C16.1368 13.4883 16.2 13.6409 16.2 13.8C16.2 13.9591 16.1368 14.1117 16.0243 14.2243C15.9117 14.3368 15.7591 14.4 15.6 14.4H11.4C11.2409 14.4 11.0882 14.3368 10.9757 14.2243C10.8632 14.1117 10.8 13.9591 10.8 13.8ZM10.8 17.4C10.8 17.2409 10.8632 17.0883 10.9757 16.9757C11.0882 16.8632 11.2409 16.8 11.4 16.8H15.6C15.7591 16.8 15.9117 16.8632 16.0243 16.9757C16.1368 17.0883 16.2 17.2409 16.2 17.4C16.2 17.5591 16.1368 17.7117 16.0243 17.8243C15.9117 17.9368 15.7591 18 15.6 18H11.4C11.2409 18 11.0882 17.9368 10.9757 17.8243C10.8632 17.7117 10.8 17.5591 10.8 17.4ZM9.59999 10.2C9.59999 10.4387 9.50517 10.6676 9.33638 10.8364C9.1676 11.0052 8.93868 11.1 8.69999 11.1C8.46129 11.1 8.23237 11.0052 8.06359 10.8364C7.89481 10.6676 7.79999 10.4387 7.79999 10.2C7.79999 9.9613 7.89481 9.73238 8.06359 9.5636C8.23237 9.39482 8.46129 9.29999 8.69999 9.29999C8.93868 9.29999 9.1676 9.39482 9.33638 9.5636C9.50517 9.73238 9.59999 9.9613 9.59999 10.2ZM9.59999 13.8C9.59999 14.0387 9.50517 14.2676 9.33638 14.4364C9.1676 14.6052 8.93868 14.7 8.69999 14.7C8.46129 14.7 8.23237 14.6052 8.06359 14.4364C7.89481 14.2676 7.79999 14.0387 7.79999 13.8C7.79999 13.5613 7.89481 13.3324 8.06359 13.1636C8.23237 12.9948 8.46129 12.9 8.69999 12.9C8.93868 12.9 9.1676 12.9948 9.33638 13.1636C9.50517 13.3324 9.59999 13.5613 9.59999 13.8ZM8.69999 18.3C8.46129 18.3 8.23237 18.2052 8.06359 18.0364C7.89481 17.8676 7.79999 17.6387 7.79999 17.4C7.79999 17.1613 7.89481 16.9324 8.06359 16.7636C8.23237 16.5948 8.46129 16.5 8.69999 16.5C8.93868 16.5 9.1676 16.5948 9.33638 16.7636C9.50517 16.9324 9.59999 17.1613 9.59999 17.4C9.59999 17.6387 9.50517 17.8676 9.33638 18.0364C9.1676 18.2052 8.93868 18.3 8.69999 18.3Z" fill="black"/>
</svg>
