<svg width="24" height="24" viewBox="0 0 24 24" fill="none" xmlns="http://www.w3.org/2000/svg">
<path fill-rule="evenodd" clip-rule="evenodd" d="M18.1667 12.8334C18.1667 12.7465 18.1397 12.6617 18.0892 12.591C18.0387 12.5202 17.9674 12.4671 17.8852 12.4389C17.803 12.4107 17.714 12.4089 17.6308 12.4337C17.5475 12.4586 17.4741 12.5089 17.4208 12.5775L14.5042 16.3275C14.4473 16.4007 14.4164 16.4907 14.4164 16.5834C14.4164 16.676 14.4473 16.7661 14.5042 16.8392L17.4208 20.5892C17.4741 20.6578 17.5475 20.7081 17.6308 20.733C17.714 20.7578 17.803 20.7561 17.8852 20.7279C17.9674 20.6997 18.0387 20.6465 18.0892 20.5757C18.1397 20.505 18.1667 20.4203 18.1667 20.3334V18.6709C20.4079 18.7175 21.4846 19.1429 22.0254 19.6054C22.5396 20.045 22.6338 20.5621 22.7317 21.1038L22.7571 21.2434C22.7758 21.3432 22.8303 21.4328 22.9105 21.4953C22.9906 21.5578 23.0908 21.5888 23.1923 21.5826C23.2937 21.5763 23.3893 21.5332 23.4612 21.4614C23.5331 21.3896 23.5762 21.2939 23.5825 21.1925C23.6538 20.0475 23.5467 18.3884 22.7379 17.0004C21.9529 15.6534 20.5392 14.6175 18.1667 14.5092V12.8334Z" fill="#717788"/>
<path fill-rule="evenodd" clip-rule="evenodd" d="M18.2797 6.26641C18.4203 6.40703 18.5 6.59687 18.5 6.79609V10.6067C18.4006 10.6022 18.3006 10.6 18.2 10.6C14.5549 10.6 11.6 13.5549 11.6 17.2C11.6 19.0912 12.3955 20.7967 13.6701 22H3.29999C2.29999 22 2.00001 21.3 2.00001 20.8L2 2.3C2 1.8 2.29999 1 3.29999 1H12.7039C12.9031 1 13.0953 1.07969 13.236 1.22031L18.2797 6.26641ZM16.7703 7.14062L12.3594 2.72969V7.14062H16.7703ZM4.22876 14.2286C3.80273 13.8026 3.80273 13.1118 4.22876 12.6858L9.68597 7.2286C10.112 6.80257 10.8027 6.80257 11.2288 7.2286C11.6548 7.65463 11.6548 8.34536 11.2288 8.77139L5.77155 14.2286C5.34552 14.6546 4.65479 14.6546 4.22876 14.2286ZM5.45453 9.90916C6.25786 9.90916 6.90909 9.25794 6.90909 8.45461C6.90909 7.65128 6.25786 7.00005 5.45453 7.00005C4.6512 7.00005 3.99997 7.65128 3.99997 8.45461C3.99997 9.25794 4.6512 9.90916 5.45453 9.90916ZM9.8182 14.2727C10.6215 14.2727 11.2728 13.6215 11.2728 12.8181C11.2728 12.0148 10.6215 11.3636 9.8182 11.3636C9.01487 11.3636 8.36365 12.0148 8.36365 12.8181C8.36365 13.6215 9.01487 14.2727 9.8182 14.2727Z" fill="#717788"/>
</svg>
