<svg width="24" height="24" viewBox="0 0 24 24" fill="none" xmlns="http://www.w3.org/2000/svg">
<path fill-rule="evenodd" clip-rule="evenodd" d="M17.4797 6.46642C17.6203 6.60704 17.7 6.79689 17.7 6.99611V10.8067C17.6005 10.8023 17.5005 10.8 17.4 10.8C13.7549 10.8 10.8 13.7549 10.8 17.4C10.8 19.2912 11.5954 20.9967 12.87 22.2H2.49994C1.49994 22.2 1.19996 21.5 1.19996 21L1.19995 2.50001C1.19995 2.00001 1.49994 1.20001 2.49994 1.20001H11.9039C12.1031 1.20001 12.2953 1.2797 12.4359 1.42032L17.4797 6.46642ZM15.9703 7.34064L11.5593 2.9297V7.34064H15.9703ZM6.74996 12.6117C6.90231 12.7875 6.97848 13.0297 6.97848 13.3383C6.97848 13.6156 6.90231 13.8344 6.74996 13.9945C6.59762 14.1508 6.38864 14.2289 6.12301 14.2289C5.75973 14.2289 5.47848 14.1137 5.27926 13.8832C5.08395 13.6488 4.98629 13.309 4.98629 12.8637H3.01168C3.01168 13.6723 3.23824 14.3246 3.69137 14.8207C4.1484 15.3129 4.8027 15.6039 5.65426 15.6938V16.8774H6.5859V15.6996C7.31637 15.6293 7.89254 15.3832 8.31442 14.9613C8.7402 14.5395 8.95309 13.9945 8.95309 13.3266C8.95309 12.932 8.88668 12.5942 8.75387 12.3129C8.62106 12.0317 8.43746 11.7856 8.20309 11.5746C7.96871 11.3637 7.68942 11.1762 7.3652 11.0121C7.04489 10.8442 6.70309 10.684 6.33981 10.5317C5.97653 10.3754 5.71285 10.2133 5.54879 10.0453C5.38473 9.87345 5.3027 9.64298 5.3027 9.35392C5.3027 9.06876 5.37301 8.84611 5.51364 8.68595C5.65817 8.52189 5.85934 8.43986 6.11715 8.43986C6.40621 8.43986 6.62887 8.54923 6.78512 8.76798C6.94137 8.98673 7.0195 9.29923 7.0195 9.70548H8.99996C8.99996 8.96329 8.79489 8.35197 8.38473 7.8715C7.97848 7.38712 7.41793 7.0922 6.70309 6.98673V5.72697H5.77145V6.96329C5.02926 7.03361 4.43551 7.28361 3.9902 7.71329C3.54489 8.13907 3.32223 8.68204 3.32223 9.3422C3.32223 9.73673 3.38473 10.0727 3.50973 10.35C3.63473 10.6274 3.81442 10.8715 4.04879 11.0824C4.28317 11.2934 4.56246 11.4789 4.88668 11.6391C5.2109 11.7992 5.56442 11.9574 5.94723 12.1137C6.33004 12.2699 6.59762 12.4359 6.74996 12.6117Z" fill="#02215A"/>
<path d="M20.5297 20.1257C20.5078 20.1637 20.4762 20.1953 20.4382 20.2173C20.4002 20.2392 20.3571 20.2508 20.3132 20.2508C20.3132 20.2508 19.7815 20.751 17.2815 20.751C14.7815 20.751 14.25 20.2507 14.25 20.2507C14.2061 20.2507 14.163 20.2391 14.1249 20.2172C14.0869 20.1952 14.0554 20.1636 14.0334 20.1256C14.0115 20.0875 14 20.0444 14 20.0005C14 19.9566 14.0116 19.9135 14.0336 19.8755C14.5001 19.0721 15.2472 18.4695 16.1311 18.1836C15.7076 17.9316 15.3786 17.5476 15.1945 17.0905C15.0104 16.6334 14.9815 16.1285 15.1121 15.6534C15.2428 15.1783 15.5258 14.7592 15.9178 14.4605C16.3097 14.1618 16.7888 14 17.2816 14C17.7744 14 18.2535 14.1618 18.6454 14.4605C19.0374 14.7592 19.3204 15.1783 19.4511 15.6534C19.5817 16.1285 19.5528 16.6334 19.3687 17.0905C19.1846 17.5476 18.8556 17.9316 18.4321 18.1836C19.3161 18.4695 20.0631 19.0721 20.5296 19.8755C20.5516 19.9135 20.5632 19.9567 20.5632 20.0006C20.5633 20.0445 20.5517 20.0877 20.5297 20.1257Z" fill="#02215A"/>
</svg>
