<svg width="24" height="18" viewBox="0 0 24 18" fill="none" xmlns="http://www.w3.org/2000/svg">
<g clip-path="url(#clip0_409:1664)">
<path fill-rule="evenodd" clip-rule="evenodd" d="M24 0H0V19H24V0ZM16.0287 7.10131C15.6528 7.36097 15.2067 7.50003 14.7499 7.50002C14.1423 7.50002 13.5918 7.26002 13.1883 6.87001L9.48321 8.72252C9.50591 8.90682 9.50591 9.09322 9.48321 9.27752L13.1883 11.13C13.5705 10.7617 14.0705 10.5403 14.6001 10.505C15.1297 10.4697 15.6547 10.6227 16.0824 10.937C16.5101 11.2513 16.8129 11.7067 16.9373 12.2227C17.0616 12.7387 16.9996 13.282 16.7621 13.7567C16.5247 14.2313 16.127 14.6068 15.6395 14.8166C15.152 15.0265 14.606 15.0573 14.098 14.9035C13.59 14.7497 13.1527 14.4214 12.8634 13.9764C12.5741 13.5314 12.4514 12.9985 12.517 12.4718L8.81194 10.6193C8.49411 10.9258 8.09312 11.132 7.65893 11.2122C7.22474 11.2924 6.77654 11.2431 6.37016 11.0705C5.96378 10.8978 5.61718 10.6094 5.37355 10.2412C5.12991 9.87295 5 9.44118 5 8.99965C5 8.55812 5.12991 8.12635 5.37355 7.75812C5.61718 7.38989 5.96378 7.10148 6.37016 6.92882C6.77654 6.75615 7.22474 6.70687 7.65893 6.7871C8.09312 6.86733 8.49411 7.07353 8.81194 7.38002L12.517 5.52751C12.4607 5.07413 12.5437 4.61434 12.755 4.20929C12.9664 3.80423 13.296 3.4731 13.7001 3.25993C14.1042 3.04676 14.5636 2.96166 15.0172 3.01594C15.4709 3.07021 15.8973 3.2613 16.2397 3.56378C16.5821 3.86626 16.8243 4.26581 16.9341 4.70928C17.0439 5.15276 17.016 5.61915 16.8543 6.04644C16.6926 6.47373 16.4046 6.84166 16.0287 7.10131Z" fill="#02215A"/>
</g>
<defs>
<clipPath id="clip0_409:1664">
<rect width="24" height="18" rx="3" fill="white"/>
</clipPath>
</defs>
</svg>
