<svg width="24" height="24" viewBox="0 0 24 24" fill="none" xmlns="http://www.w3.org/2000/svg">
<g clip-path="url(#clip0_346:1081)">
<g clip-path="url(#clip1_346:1081)">
<path d="M8.1372 17.06C7.6029 17.2819 7.18733 17.572 6.8905 17.9305C6.59367 18.2889 6.38589 18.6645 6.26715 19.057C6.14842 19.4496 6.06926 19.8166 6.02968 20.158C5.99011 20.4994 5.99011 20.764 6.02968 20.9517C6.06926 21.1395 6.14842 21.276 6.26715 21.3614C6.5442 21.5662 6.88061 21.7454 7.27639 21.899C7.67216 22.0527 8.10752 22.1892 8.58245 22.3087C9.05739 22.4282 9.54222 22.5221 10.0369 22.5903L11.4914 22.7952C12.5996 22.9147 13.7672 22.9829 14.9941 23C16.2408 22.9829 17.4182 22.9147 18.5264 22.7952C19.0013 22.744 19.4861 22.6757 19.9809 22.5903C20.4756 22.505 20.9505 22.4111 21.4057 22.3087C21.8608 22.2063 22.2962 22.0697 22.7117 21.899C23.1273 21.7284 23.4736 21.5491 23.7507 21.3614C23.8694 21.276 23.9436 21.1437 23.9733 20.9645C24.003 20.7853 24.0079 20.5165 23.9881 20.158C23.9683 19.7996 23.8892 19.4326 23.7507 19.057C23.6121 18.6815 23.4044 18.306 23.1273 17.9305C22.8503 17.555 22.4347 17.2648 21.8806 17.06L20.0402 16.3431C19.4664 16.1212 18.9518 15.8822 18.4967 15.6262C18.0416 15.3701 17.6953 15.0714 17.4578 14.73C17.2203 14.3887 17.0917 13.979 17.0719 13.5011V13.3474C17.4083 13.1085 17.6557 12.8268 17.814 12.5025L18.4967 11.1199C18.8104 10.8192 20.2559 9.19966 19.031 9.19966C19.1497 8.55104 19.1794 7.97069 19.1201 7.45862C19.0805 7.03189 18.9617 6.6393 18.7639 6.28085C18.566 5.9224 18.2098 5.74318 17.6953 5.74318C17.5963 5.41887 17.4281 5.12869 17.1906 4.87266C16.973 4.65076 16.6662 4.44593 16.2704 4.25817C15.8747 4.07041 15.3503 3.98506 14.6972 4.00213C14.1036 4.00213 13.6187 4.11308 13.2427 4.33498C12.8668 4.55688 12.5402 4.81291 12.2632 5.10309C11.9861 5.39326 11.7586 5.6749 11.5805 5.94801C10.7924 7.15645 11.3113 7.91227 10.9868 9.19966C9.77884 9.25755 11.2831 10.8065 11.6102 11.1199C11.7487 11.4272 11.8575 11.6917 11.9367 11.9136C12.0158 12.1355 12.1049 12.3404 12.2038 12.5281C12.3028 12.7159 12.4017 12.861 12.5007 12.9634C12.5996 13.0658 12.748 13.1938 12.9459 13.3474V13.5011C12.9459 13.9961 12.8173 14.4057 12.56 14.73C12.3028 15.0544 11.9466 15.3531 11.4914 15.6262C11.0363 15.8993 10.5317 16.1382 9.97757 16.3431C9.42348 16.5479 8.81003 16.7869 8.1372 17.06Z" fill="#02215A"/>
</g>
<path fill-rule="evenodd" clip-rule="evenodd" d="M0.502103 0.475951C0.823594 0.171205 1.25963 0 1.71429 0H10.2857C10.7404 0 11.1764 0.171205 11.4979 0.475951C11.8194 0.780698 12 1.19402 12 1.625V3.6797C11.7453 3.86263 11.5143 4.06182 11.3071 4.27726C10.9838 4.61325 10.7183 4.93936 10.5106 5.25559C9.94517 6.11604 9.95205 6.75876 9.95966 7.46917C9.96461 7.93145 9.96987 8.4224 9.81794 9.02066C8.41005 9.08762 10.1635 10.8811 10.5452 11.2441C10.7068 11.5999 10.8338 11.9062 10.9261 12.1632C10.9663 12.2749 11.0086 12.3829 11.0531 12.4871L9 11.375L6 13L3 11.375L0 13V1.625C0 1.19402 0.180612 0.780698 0.502103 0.475951ZM1.94801 2.79446C2.18912 2.5659 2.51615 2.4375 2.85714 2.4375C3.19814 2.4375 3.52516 2.5659 3.76628 2.79446C4.0074 3.02302 4.14286 3.33302 4.14286 3.65625C4.14286 3.97948 4.0074 4.28948 3.76628 4.51804C3.52516 4.7466 3.19814 4.875 2.85714 4.875C2.51615 4.875 2.18912 4.7466 1.94801 4.51804C1.70689 4.28948 1.57143 3.97948 1.57143 3.65625C1.57143 3.33302 1.70689 3.02302 1.94801 2.79446ZM7.57143 2.43767C7.79871 2.43767 8.01669 2.52324 8.17743 2.67556C8.33812 2.82793 8.42839 3.03455 8.42839 3.25C8.42839 3.46545 8.33812 3.67207 8.17743 3.82444L3.03457 8.69944C2.9555 8.77704 2.86092 8.83894 2.75635 8.88152C2.65177 8.9241 2.5393 8.94652 2.42549 8.94745C2.31168 8.94839 2.19881 8.92783 2.09347 8.88698C1.98813 8.84613 1.89243 8.7858 1.81195 8.70951C1.73147 8.63322 1.66782 8.5425 1.62472 8.44265C1.58163 8.3428 1.55994 8.23581 1.56093 8.12792C1.56192 8.02004 1.58556 7.91342 1.63048 7.8143C1.67541 7.71517 1.74071 7.62551 1.82257 7.55056L6.96543 2.67556C7.12617 2.52324 7.34414 2.43767 7.57143 2.43767ZM6.23372 6.85696C6.47484 6.6284 6.80187 6.5 7.14286 6.5C7.48385 6.5 7.81088 6.6284 8.05199 6.85696C8.29311 7.08552 8.42857 7.39552 8.42857 7.71875C8.42857 8.04198 8.29311 8.35198 8.05199 8.58054C7.81088 8.8091 7.48385 8.9375 7.14286 8.9375C6.80187 8.9375 6.47484 8.8091 6.23372 8.58054C5.9926 8.35198 5.85714 8.04198 5.85714 7.71875C5.85714 7.39552 5.9926 7.08552 6.23372 6.85696Z" fill="#02215A"/>
</g>
<defs>
<clipPath id="clip0_346:1081">
<rect width="24" height="24" fill="white"/>
</clipPath>
<clipPath id="clip1_346:1081">
<rect width="19" height="23" fill="white" transform="matrix(-1 0 0 1 24 4)"/>
</clipPath>
</defs>
</svg>
