<svg width="24" height="24" viewBox="0 0 24 24" fill="none" xmlns="http://www.w3.org/2000/svg">
<path fill-rule="evenodd" clip-rule="evenodd" d="M17.4797 6.46642C17.6203 6.60704 17.7 6.79689 17.7 6.99611V8.9563C17.6121 8.41508 17.1083 8 16.5 8C15.8299 8 15.2865 8.50379 15.2865 9.125V9.85766C12.4989 10.3941 10.4316 12.5809 10.4316 15.3125C10.4316 18.6856 9.22498 19.8609 8.47026 20.596C8.42028 20.6447 8.37228 20.6914 8.32674 20.7368C8.09907 20.9635 7.99813 21.2346 8.00003 21.5C8.00186 21.7535 8.09731 22.0016 8.26538 22.2H2.49994C1.49994 22.2 1.19996 21.5 1.19996 21L1.19995 2.50001C1.19995 2.00001 1.49994 1.20001 2.49994 1.20001H11.9039C12.1031 1.20001 12.2953 1.2797 12.4359 1.42032L17.4797 6.46642ZM15.9703 7.34064L11.5593 2.9297V7.34064H15.9703ZM6.74995 12.6117C6.9023 12.7875 6.97847 13.0297 6.97847 13.3383C6.97847 13.6156 6.9023 13.8344 6.74995 13.9945C6.59761 14.1508 6.38862 14.2289 6.123 14.2289C5.75972 14.2289 5.47847 14.1137 5.27925 13.8832C5.08394 13.6488 4.98628 13.309 4.98628 12.8637H3.01167C3.01167 13.6723 3.23823 14.3246 3.69136 14.8207C4.14839 15.3129 4.80269 15.6039 5.65425 15.6938V16.8774H6.58589V15.6996C7.31636 15.6293 7.89253 15.3832 8.3144 14.9613C8.74019 14.5395 8.95308 13.9945 8.95308 13.3266C8.95308 12.932 8.88667 12.5942 8.75386 12.3129C8.62105 12.0317 8.43745 11.7856 8.20308 11.5746C7.9687 11.3637 7.6894 11.1762 7.36519 11.0121C7.04487 10.8442 6.70308 10.684 6.3398 10.5317C5.97651 10.3754 5.71284 10.2133 5.54878 10.0453C5.38472 9.87345 5.30269 9.64298 5.30269 9.35392C5.30269 9.06876 5.373 8.84611 5.51362 8.68595C5.65815 8.52189 5.85933 8.43986 6.11714 8.43986C6.4062 8.43986 6.62886 8.54923 6.78511 8.76798C6.94136 8.98673 7.01948 9.29923 7.01948 9.70548H8.99995C8.99995 8.96329 8.79487 8.35197 8.38472 7.8715C7.97847 7.38712 7.41792 7.0922 6.70308 6.98673V5.72697H5.77144V6.96329C5.02925 7.03361 4.4355 7.28361 3.99019 7.71329C3.54487 8.13907 3.32222 8.68204 3.32222 9.3422C3.32222 9.73673 3.38472 10.0727 3.50972 10.35C3.63472 10.6274 3.8144 10.8715 4.04878 11.0824C4.28315 11.2934 4.56245 11.4789 4.88667 11.6391C5.21089 11.7992 5.5644 11.9574 5.94722 12.1137C6.33003 12.2699 6.59761 12.4359 6.74995 12.6117Z" fill="#02215A"/>
<path d="M16.5 24C17.5249 24 18.3563 23.2166 18.3563 22.25H14.6437C14.6437 23.2166 15.4751 24 16.5 24ZM22.7501 19.9064C22.1895 19.3387 21.1405 18.4848 21.1405 15.6875C21.1405 13.5629 19.5596 11.8621 17.428 11.4448V10.875C17.428 10.3918 17.0125 10 16.5 10C15.9875 10 15.572 10.3918 15.572 10.875V11.4448C13.4404 11.8621 11.8595 13.5629 11.8595 15.6875C11.8595 18.4848 10.8105 19.3387 10.2499 19.9064C10.0758 20.0827 9.99857 20.2936 10 20.5C10.0032 20.9484 10.3767 21.375 10.9315 21.375H22.0685C22.6233 21.375 22.9971 20.9484 23 20.5C23.0014 20.2936 22.9242 20.0825 22.7501 19.9064Z" fill="#02215A"/>
</svg>
