<svg width="24" height="24" viewBox="0 0 24 24" fill="none" xmlns="http://www.w3.org/2000/svg">
<path d="M4.28571 2C3.14907 2 2.05898 2.45153 1.25526 3.25526C0.451529 4.05898 0 5.14907 0 6.28571V14.8571C0 15.9938 0.451529 17.0839 1.25526 17.8876C2.05898 18.6913 3.14907 19.1429 4.28571 19.1429H10.3834C10.3184 18.79 10.2857 18.4319 10.2857 18.0731C10.2857 15.8566 12.1234 14.1509 14.2766 14.1509H14.3074C13.76 13.5852 13.3497 12.9015 13.1081 12.1523C12.8666 11.4031 12.8002 10.6085 12.9142 9.8296C13.0282 9.05073 13.3194 8.30841 13.7655 7.65983C14.2115 7.01126 14.8005 6.47373 15.4871 6.08866C16.1736 5.7036 16.9394 5.48127 17.7254 5.4388C18.5115 5.39634 19.2967 5.53488 20.0208 5.84374C20.7448 6.1526 21.3883 6.62354 21.9016 7.22029C22.415 7.81703 22.7845 8.52365 22.9817 9.28571H24V6.28571C24 5.14907 23.5485 4.05898 22.7447 3.25526C21.941 2.45153 20.8509 2 19.7143 2H4.28571ZM5.14286 5.42857H10.2857C10.7404 5.42857 11.1764 5.60918 11.4979 5.93067C11.8194 6.25217 12 6.6882 12 7.14286V10.5714C12 11.0261 11.8194 11.4621 11.4979 11.7836C11.1764 12.1051 10.7404 12.2857 10.2857 12.2857H5.14286C4.6882 12.2857 4.25216 12.1051 3.93067 11.7836C3.60918 11.4621 3.42857 11.0261 3.42857 10.5714V7.14286C3.42857 6.6882 3.60918 6.25217 3.93067 5.93067C4.25216 5.60918 4.6882 5.42857 5.14286 5.42857ZM21.4286 10.5714C21.4286 11.4807 21.0673 12.3528 20.4244 12.9958C19.7814 13.6388 18.9093 14 18 14C17.0907 14 16.2186 13.6388 15.5756 12.9958C14.9327 12.3528 14.5714 11.4807 14.5714 10.5714C14.5714 9.66211 14.9327 8.79004 15.5756 8.14706C16.2186 7.50408 17.0907 7.14286 18 7.14286C18.9093 7.14286 19.7814 7.50408 20.4244 8.14706C21.0673 8.79004 21.4286 9.66211 21.4286 10.5714ZM12 18.0731C12 16.8543 13.02 15.8651 14.2766 15.8651H21.7234C22.98 15.8651 24 16.8543 24 18.0731C24 20.0429 22.6166 21.7606 20.6434 22.2389L20.5011 22.2731C18.8574 22.671 17.1426 22.671 15.4989 22.2731L15.3566 22.2389C13.3851 21.7606 12 20.0429 12 18.0731Z" fill="#02215A"/>
</svg>
