<svg width="24" height="24" viewBox="0 0 24 24" fill="none" xmlns="http://www.w3.org/2000/svg">
<path fill-rule="evenodd" clip-rule="evenodd" d="M9.54386 2H13.9853V2.40751C14.3284 6.21941 15.4632 6.9095 18.9254 5.29447L19.3085 5.07351L21.5292 8.91983L21.3127 9.04475C18.0349 11.321 18.001 12.6585 21.276 14.9203L21.5298 15.0668L21.5187 15.0857L19.309 18.9132L18.886 18.6689C15.3578 17.0555 14.2824 17.8494 14.0003 22L13.9853 21.8185V21.9867H9.54386V21.3393C9.17189 17.6607 7.97824 17.0977 4.46169 18.7744L4.22074 18.9132L2 15.0668L2.57462 14.7348C5.48323 12.6351 5.48212 11.3232 2.51743 9.21908L2 8.91983L4.22074 5.07351L4.34455 5.14513C7.9366 6.86453 9.17466 6.34766 9.54386 2.66733V2ZM14.5405 11.9933C14.5405 12.7296 14.2481 13.4356 13.7275 13.9562C13.2069 14.4768 12.5008 14.7693 11.7646 14.7693C11.0284 14.7693 10.3223 14.4768 9.80172 13.9562C9.28114 13.4356 8.98867 12.7296 8.98867 11.9933C8.98867 11.2571 9.28114 10.551 9.80172 10.0305C10.3223 9.50987 11.0284 9.21741 11.7646 9.21741C12.5008 9.21741 13.2069 9.50987 13.7275 10.0305C14.2481 10.551 14.5405 11.2571 14.5405 11.9933ZM16.2061 11.9933C16.2061 13.1713 15.7381 14.301 14.9052 15.1339C14.0723 15.9669 12.9426 16.4348 11.7646 16.4348C10.5866 16.4348 9.45694 15.9669 8.624 15.1339C7.79106 14.301 7.32312 13.1713 7.32312 11.9933C7.32312 10.8154 7.79106 9.68567 8.624 8.85273C9.45694 8.01979 10.5866 7.55185 11.7646 7.55185C12.9426 7.55185 14.0723 8.01979 14.9052 8.85273C15.7381 9.68567 16.2061 10.8154 16.2061 11.9933ZM17.3165 11.9933C17.3165 15.0596 14.8309 17.5452 11.7646 17.5452C8.69831 17.5452 6.21275 15.0596 6.21275 11.9933C6.21275 8.92705 8.69831 6.44148 11.7646 6.44148C14.8309 6.44148 17.3165 8.92705 17.3165 11.9933Z" fill="#717788"/>
</svg>
