<svg width="24" height="24" viewBox="0 0 24 24" fill="none" xmlns="http://www.w3.org/2000/svg">
<g clip-path="url(#clip0_346:1055)">
<path d="M16.8948 24C17.7911 24 18.5181 23.2932 18.5181 22.421H15.2715C15.2715 23.2932 15.9985 24 16.8948 24ZM22.3605 20.3065C21.8702 19.7943 20.9529 19.0238 20.9529 16.5C20.9529 14.583 19.5704 13.0485 17.7063 12.672V12.1579C17.7063 11.7219 17.3429 11.3684 16.8948 11.3684C16.4466 11.3684 16.0833 11.7219 16.0833 12.1579V12.672C14.2192 13.0485 12.8367 14.583 12.8367 16.5C12.8367 19.0238 11.9193 19.7943 11.4291 20.3065C11.2768 20.4656 11.2093 20.6558 11.2106 20.8421C11.2134 21.2467 11.54 21.6316 12.0252 21.6316H21.7644C22.2496 21.6316 22.5764 21.2467 22.579 20.8421C22.5802 20.6558 22.5127 20.4654 22.3605 20.3065Z" fill="#02215A"/>
<path fill-rule="evenodd" clip-rule="evenodd" d="M4.57895 0C3.70692 0 3 0.706918 3 1.57895V19.4737C3 20.3457 3.70692 21.0526 4.57895 21.0526H9.37057C9.41619 20.9279 9.49123 20.8076 9.59908 20.6989C9.63854 20.6592 9.68013 20.6182 9.72344 20.5755L9.72349 20.5754C10.1468 20.1582 10.7342 19.5793 11.096 18.4211H5.89478C5.45876 18.4211 5.1053 18.0676 5.1053 17.6316C5.1053 17.1956 5.45876 16.8421 5.89478 16.8421H11.3883C11.4113 16.5633 11.4237 16.2635 11.4237 15.9408C11.4237 15.7102 11.4403 15.484 11.4725 15.2632H5.89478C5.45876 15.2632 5.1053 14.9097 5.1053 14.4737C5.1053 14.0377 5.45876 13.6842 5.89478 13.6842H12.0084C12.3531 13.0669 12.8367 12.5304 13.4223 12.1053H5.89478C5.45876 12.1053 5.1053 11.7518 5.1053 11.3158C5.1053 10.8798 5.45876 10.5263 5.89478 10.5263H15.6323V10.5131C15.6323 9.96823 16.1033 9.52631 16.6843 9.52631C17.2652 9.52631 17.7362 9.96823 17.7362 10.5131V11.1558C18.5164 11.3078 19.2314 11.6106 19.8421 12.0316V6.35581C19.8421 5.96078 19.694 5.58009 19.4271 5.28888L15.0483 0.512014C14.7492 0.185758 14.327 0 13.8844 0H4.57895ZM6.28133 8.05274C6.33797 6.95704 6.36629 5.89161 6.36629 4.85645C6.34871 4.8545 6.3077 4.85254 6.24324 4.85059C5.9659 4.83887 5.77449 4.83301 5.66903 4.83301C5.63778 4.83301 5.53719 4.83497 5.36727 4.83887L5.1241 4.84473L5.17684 3.58497L6.95809 3.667L8.81844 3.6377C8.77547 3.91114 8.75399 4.24708 8.75399 4.64551L7.67879 4.58106L7.64363 7.62208C7.64363 7.80958 7.64949 7.99122 7.66121 8.167C7.10848 8.09864 6.64852 8.06055 6.28133 8.05274ZM10.2335 7.47266L11.0714 7.41114C11.1046 7.17872 11.1192 6.99708 11.1153 6.86622L11.1124 6.76954C10.8097 6.78907 10.5138 6.84278 10.2247 6.93067L10.2335 7.47266ZM11.2589 7.82129C10.9014 8.06934 10.4913 8.19336 10.0284 8.19336C9.74324 8.19336 9.51278 8.13379 9.33699 8.01465C9.12996 7.87598 9.02645 7.6709 9.02645 7.39942C9.02645 7.22559 9.06356 7.05079 9.13778 6.875C9.22176 6.67383 9.33211 6.53907 9.46883 6.47071C9.73641 6.3379 10.3712 6.23536 11.3731 6.16309V6.06055C11.3731 5.92579 11.3643 5.81641 11.3468 5.73243C11.0323 5.62891 10.7452 5.57715 10.4854 5.57715C10.4386 5.57715 10.3917 5.57911 10.3448 5.58301L10.3331 5.99024C10.0831 5.9629 9.86922 5.94922 9.69149 5.94922C9.58016 5.94922 9.41414 5.95411 9.19344 5.96387V5.89942C9.19344 5.55176 9.39461 5.28614 9.79696 5.10254C10.1075 4.95801 10.4581 4.88575 10.8487 4.88575C11.878 4.88575 12.3927 5.27735 12.3927 6.06055C12.3927 6.15821 12.3878 6.30469 12.378 6.5C12.3682 6.69532 12.3634 6.8418 12.3634 6.93946C12.3634 7.20508 12.4122 7.58692 12.5098 8.08497C12.2774 8.06739 12.1524 8.0586 12.1348 8.0586C12.0294 8.0586 11.7891 8.09083 11.4141 8.15528L11.2589 7.82129ZM14.0538 5.08497L14.4669 5.90528L14.6837 5.53907L14.9415 5.12012L15.8878 5.1377C15.5089 5.64942 15.2374 6.07911 15.0733 6.42676L15.9727 8.01172H14.628L14.4317 7.58692L14.2442 7.23243L13.7901 7.95899L13.6759 8.19336L12.7208 8.04102L13.087 7.4961L13.711 6.51758L12.835 5.08497H14.0538Z" fill="#02215A"/>
</g>
<defs>
<clipPath id="clip0_346:1055">
<rect width="24" height="24" fill="white"/>
</clipPath>
</defs>
</svg>
