<svg width="24" height="24" viewBox="0 0 24 24" fill="none" xmlns="http://www.w3.org/2000/svg">
<path fill-rule="evenodd" clip-rule="evenodd" d="M3.5 0C2.67157 0 2 0.671573 2 1.5V18.5C2 19.3284 2.67157 20 3.5 20H11.5313C10.7731 19.3308 10.1853 18.473 9.84141 17.5H7.25C6.83579 17.5 6.5 17.1642 6.5 16.75C6.5 16.3358 6.83579 16 7.25 16H9.52054C9.50694 15.8351 9.5 15.6684 9.5 15.5C9.5 15.1593 9.5284 14.8252 9.58296 14.5H7.25C6.83579 14.5 6.5 14.1642 6.5 13.75C6.5 13.3358 6.83579 13 7.25 13H10.044C10.2964 12.4502 10.6293 11.9452 11.0278 11.5H7.25C6.83579 11.5 6.5 11.1642 6.5 10.75C6.5 10.3358 6.83579 10 7.25 10H13.0983C13.8337 9.67841 14.646 9.5 15.5 9.5C16.3922 9.5 17.2389 9.69474 18 10.044V6.03802C18 5.66273 17.8593 5.30108 17.6057 5.02443L13.4459 0.486413C13.1618 0.17647 12.7606 0 12.3401 0H3.5ZM5 6C4.44772 6 4 6.44772 4 7C4 7.55228 4.44772 8 5 8H9C9.55228 8 10 7.55228 10 7C10 6.44772 9.55228 6 9 6H5ZM4 10.75C4 10.3358 4.33579 10 4.75 10C5.16421 10 5.5 10.3358 5.5 10.75C5.5 11.1642 5.16421 11.5 4.75 11.5C4.33579 11.5 4 11.1642 4 10.75ZM4.75 13C4.33579 13 4 13.3358 4 13.75C4 14.1642 4.33579 14.5 4.75 14.5C5.16421 14.5 5.5 14.1642 5.5 13.75C5.5 13.3358 5.16421 13 4.75 13ZM4 16.75C4 16.3358 4.33579 16 4.75 16C5.16421 16 5.5 16.3358 5.5 16.75C5.5 17.1642 5.16421 17.5 4.75 17.5C4.33579 17.5 4 17.1642 4 16.75Z" fill="#02215A"/>
<path fill-rule="evenodd" clip-rule="evenodd" d="M12.6936 15.4387C12.6936 13.7937 14.0272 12.4601 15.6722 12.4601C17.3172 12.4601 18.6507 13.7937 18.6507 15.4387C18.6507 17.0837 17.3172 18.4173 15.6722 18.4173C14.0272 18.4173 12.6936 17.0837 12.6936 15.4387ZM15.6722 10.4601C12.9226 10.4601 10.6936 12.6891 10.6936 15.4387C10.6936 18.1883 12.9226 20.4173 15.6722 20.4173C16.6393 20.4173 17.542 20.1415 18.306 19.6643C18.3449 19.708 18.3883 19.7489 18.4359 19.7864L21.5644 22.2444C21.9986 22.5856 22.6273 22.5101 22.9685 22.0758C23.3097 21.6416 23.2343 21.0129 22.8 20.6717L19.7591 18.2825C20.3212 17.4763 20.6507 16.496 20.6507 15.4387C20.6507 12.6891 18.4218 10.4601 15.6722 10.4601Z" fill="#02215A"/>
</svg>
