<svg width="24" height="24" viewBox="0 0 24 24" fill="none" xmlns="http://www.w3.org/2000/svg">
<path d="M19 8C21.2091 8 23 6.20914 23 4C23 1.79086 21.2091 0 19 0C16.7909 0 15 1.79086 15 4C15 6.20914 16.7909 8 19 8Z" fill="#02215A"/>
<path fill-rule="evenodd" clip-rule="evenodd" d="M12.8125 3.625C12.8125 2.6905 13.0133 1.80456 13.3664 1H3.625C2.17731 1 1 2.17731 1 3.625V19.375C1 20.8227 2.17731 22 3.625 22H19.375C20.8227 22 22 20.8227 22 19.375V9.63363C21.1729 9.99843 20.279 10.1871 19.375 10.1875C17.6345 10.1875 15.9653 9.4961 14.7346 8.26539C13.5039 7.03468 12.8125 5.36548 12.8125 3.625ZM8.5 20C11.5382 20 14 17.5382 14 14.5C14 11.4618 11.5382 9 8.5 9C5.46178 9 3 11.4618 3 14.5C3 17.5382 5.46178 20 8.5 20ZM7.91298 11.5755V11.1313C7.91298 10.888 8.10865 10.6923 8.35192 10.6923H8.64543C8.8887 10.6923 9.08437 10.888 9.08437 11.1313V11.5808C9.49423 11.6019 9.89087 11.7421 10.2214 11.988C10.3695 12.0964 10.3853 12.3132 10.2531 12.4401L9.82211 12.85C9.72163 12.9478 9.57091 12.9505 9.45192 12.8764C9.30913 12.7865 9.15048 12.7416 8.98125 12.7416H7.95264C7.71466 12.7416 7.52163 12.9584 7.52163 13.2255C7.52163 13.4423 7.65385 13.6353 7.84159 13.6909L9.48894 14.1853C10.1685 14.3889 10.6445 15.0421 10.6445 15.7745C10.6445 16.6736 9.94639 17.4007 9.08173 17.4245V17.8687C9.08173 18.112 8.88606 18.3077 8.64279 18.3077H8.34928C8.10601 18.3077 7.91034 18.112 7.91034 17.8687V17.4192C7.50048 17.3981 7.10385 17.2579 6.77332 17.012C6.62524 16.9036 6.60937 16.6868 6.74159 16.5599L7.1726 16.15C7.27308 16.0522 7.4238 16.0495 7.54279 16.1236C7.68558 16.2135 7.84423 16.2584 8.01346 16.2584H9.04207C9.28005 16.2584 9.47308 16.0416 9.47308 15.7745C9.47308 15.5577 9.34087 15.3647 9.15312 15.3091L7.50577 14.8147C6.8262 14.6111 6.35024 13.9579 6.35024 13.2255C6.35288 12.3264 7.04832 11.5993 7.91298 11.5755ZM18.71 17.2447L17.016 15.5294H21V14.4706H17.016L18.71 12.7553L17.968 12L15 15L17.968 18L18.71 17.2447Z" fill="#02215A"/>
</svg>
