<svg width="22" height="22" viewBox="0 0 22 22" fill="none" xmlns="http://www.w3.org/2000/svg">
<path d="M10.7083 6.6375L3.66696 12.4359V18.694C3.66696 18.8561 3.73134 19.0115 3.84593 19.1261C3.96053 19.2406 4.11596 19.305 4.27802 19.305L8.55776 19.2939C8.71929 19.2931 8.87394 19.2284 8.98787 19.1139C9.10181 18.9994 9.16577 18.8445 9.16577 18.683V15.0283C9.16577 14.8662 9.23015 14.7108 9.34474 14.5963C9.45934 14.4817 9.61477 14.4173 9.77683 14.4173H12.2211C12.3832 14.4173 12.5386 14.4817 12.6532 14.5963C12.7678 14.7108 12.8322 14.8662 12.8322 15.0283V18.6803C12.8319 18.7607 12.8475 18.8403 12.8781 18.9147C12.9087 18.989 12.9537 19.0566 13.0105 19.1136C13.0672 19.1705 13.1347 19.2157 13.2089 19.2465C13.2832 19.2773 13.3628 19.2932 13.4432 19.2932L17.7214 19.305C17.8835 19.305 18.0389 19.2406 18.1535 19.1261C18.2681 19.0115 18.3325 18.8561 18.3325 18.694V12.4317L11.2927 6.6375C11.2099 6.5708 11.1068 6.53443 11.0005 6.53443C10.8942 6.53443 10.7911 6.5708 10.7083 6.6375ZM21.8308 10.5786L18.638 7.94725V2.65823C18.638 2.53671 18.5897 2.42016 18.5038 2.33422C18.4178 2.24829 18.3013 2.20001 18.1797 2.20001H16.041C15.9195 2.20001 15.8029 2.24829 15.7169 2.33422C15.631 2.42016 15.5827 2.53671 15.5827 2.65823V5.43085L12.1634 2.61814C11.8353 2.34816 11.4235 2.20055 10.9986 2.20055C10.5736 2.20055 10.1619 2.34816 9.83374 2.61814L0.166323 10.5786C0.119916 10.6169 0.0815212 10.664 0.0533329 10.7172C0.0251445 10.7704 0.00771497 10.8287 0.00204025 10.8886C-0.00363448 10.9485 0.00255679 11.009 0.0202603 11.0665C0.0379638 11.124 0.0668326 11.1775 0.105217 11.2239L1.0791 12.4076C1.11738 12.4542 1.16446 12.4927 1.21766 12.521C1.27085 12.5494 1.32911 12.5669 1.3891 12.5727C1.44909 12.5785 1.50962 12.5724 1.56725 12.5547C1.62487 12.5371 1.67845 12.5083 1.72492 12.4699L10.7083 5.07191C10.7911 5.00521 10.8942 4.96884 11.0005 4.96884C11.1068 4.96884 11.2099 5.00521 11.2927 5.07191L20.2764 12.4699C20.3228 12.5083 20.3763 12.5371 20.4339 12.5548C20.4914 12.5725 20.5519 12.5787 20.6118 12.573C20.6718 12.5674 20.73 12.5499 20.7832 12.5218C20.8364 12.4936 20.8835 12.4552 20.9219 12.4088L21.8958 11.2251C21.9341 11.1784 21.9629 11.1246 21.9803 11.0669C21.9978 11.0091 22.0037 10.9484 21.9977 10.8883C21.9917 10.8282 21.9738 10.77 21.9452 10.7168C21.9165 10.6636 21.8777 10.6167 21.8308 10.5786Z" fill="#0D4A87"/>
</svg>
