<svg width="24" height="24" viewBox="0 0 24 24" fill="none" xmlns="http://www.w3.org/2000/svg">
<path fill-rule="evenodd" clip-rule="evenodd" d="M8.84854 20.3434L8 21.3333L6 20L4 21.3333L2 20L0 21.3333V1.33333C0 0.972222 0.131944 0.659722 0.395833 0.395833C0.659722 0.131944 0.972222 0 1.33333 0H17.3333C17.6944 0 18.0069 0.131944 18.2708 0.395833C18.5347 0.659722 18.6667 0.972222 18.6667 1.33333V11.036C17.8696 10.5449 16.9667 10.2092 16 10.0709V3.33333C16 3.15278 15.934 2.99653 15.8021 2.86458C15.6701 2.73264 15.5139 2.66667 15.3333 2.66667H3.33333C3.15278 2.66667 2.99653 2.73264 2.86458 2.86458C2.73264 2.99653 2.66667 3.15278 2.66667 3.33333V11.3333C2.66667 11.5139 2.73264 11.6701 2.86458 11.8021C2.99653 11.934 3.15278 12 3.33333 12H10.101C8.80447 13.2705 8 15.0413 8 17C8 18.2109 8.30745 19.3499 8.84854 20.3434ZM14.6667 10.0078C13.7216 10.0521 12.8255 10.2838 12.0147 10.6667H12V9.33333H14.6667V10.0078ZM7.33333 17.3333H3.33333C3.15278 17.3333 2.99653 17.2674 2.86458 17.1354C2.73264 17.0035 2.66667 16.8472 2.66667 16.6667C2.66667 16.4861 2.73264 16.3299 2.86458 16.1979C2.99653 16.066 3.15278 16 3.33333 16H7.33333C7.51389 16 7.67014 16.066 7.80208 16.1979C7.93403 16.3299 8 16.4861 8 16.6667C8 16.8472 7.93403 17.0035 7.80208 17.1354C7.67014 17.2674 7.51389 17.3333 7.33333 17.3333ZM14.6667 6.66667H12V8H14.6667V6.66667ZM14.6667 4H12V5.33333H14.6667V4ZM10.6667 9.33333H4V10.6667H10.6667V9.33333ZM10.6667 6.66667H4V8H10.6667V6.66667ZM10.6667 4H4V5.33333H10.6667V4Z" fill="#02215A"/>
<path fill-rule="evenodd" clip-rule="evenodd" d="M12 16.9786C12 15.3336 13.3336 14 14.9786 14C16.6236 14 17.9571 15.3336 17.9571 16.9786C17.9571 18.6236 16.6236 19.9571 14.9786 19.9571C13.3336 19.9571 12 18.6236 12 16.9786ZM14.9786 12C12.229 12 10 14.229 10 16.9786C10 19.7282 12.229 21.9571 14.9786 21.9571C15.9457 21.9571 16.8484 21.6814 17.6124 21.2042C17.6513 21.2479 17.6947 21.2888 17.7423 21.3262L20.8708 23.7842C21.305 24.1254 21.9337 24.05 22.2749 23.6157C22.6161 23.1814 22.5407 22.5528 22.1064 22.2116L19.0655 19.8224C19.6276 19.0162 19.9571 18.0359 19.9571 16.9786C19.9571 14.229 17.7282 12 14.9786 12Z" fill="#02215A"/>
</svg>
