<svg width="24" height="22" viewBox="0 0 24 22" fill="none" xmlns="http://www.w3.org/2000/svg">
<g clip-path="url(#clip0_346:980)">
<path fill-rule="evenodd" clip-rule="evenodd" d="M11.671 13.4483H7.99983C6.87552 13.4486 5.78548 13.8387 4.91239 14.5532L2.97494 16.138H0.666652C0.489845 16.138 0.320279 16.2088 0.195258 16.3349C0.0702364 16.461 0 16.632 0 16.8104V20.8449C0 21.0232 0.0702364 21.1942 0.195258 21.3203C0.320279 21.4464 0.489845 21.5173 0.666652 21.5173H15.5317C16.1374 21.5177 16.7252 21.3102 17.1984 20.9289L23.4995 15.8438C23.6511 15.7215 23.7743 15.5673 23.8607 15.392C23.9471 15.2167 23.9945 15.0244 23.9995 14.8287C24.0046 14.633 23.9673 14.4386 23.8901 14.2589C23.813 14.0793 23.6974 13.9188 23.5524 13.7887C23.0608 13.339 22.2941 13.3685 21.7774 13.7887L17.9275 16.8944C17.4549 17.2768 16.8668 17.4845 16.2609 17.4828H11.3331C11.1563 17.4828 10.9867 17.4119 10.8617 17.2858C10.7367 17.1597 10.6664 16.9887 10.6664 16.8104C10.6664 16.632 10.7367 16.461 10.8617 16.3349C10.9867 16.2088 11.1563 16.138 11.3331 16.138H14.5951C15.2576 16.138 15.8747 15.6799 15.9805 15.0201C15.9829 15.0063 15.985 14.9925 15.9869 14.9787C15.8265 14.9928 15.6641 15 15.5 15C14.0116 15 12.6612 14.4088 11.671 13.4483Z" fill="#02215A"/>
<path d="M15.5 14C17.9858 14 20 11.9858 20 9.5C20 7.01418 17.9858 5 15.5 5C13.0142 5 11 7.01418 11 9.5C11 11.9858 13.0142 14 15.5 14ZM15.0197 7.10721V6.74375C15.0197 6.54471 15.1798 6.38462 15.3788 6.38462H15.619C15.818 6.38462 15.9781 6.54471 15.9781 6.74375V7.11154C16.3135 7.12885 16.638 7.24351 16.9084 7.44471C17.0296 7.53341 17.0425 7.71082 16.9344 7.81466L16.5817 8.15C16.4995 8.23005 16.3762 8.23221 16.2788 8.17163C16.162 8.09808 16.0322 8.0613 15.8938 8.0613H15.0522C14.8575 8.0613 14.6995 8.2387 14.6995 8.45721C14.6995 8.63462 14.8077 8.79255 14.9613 8.83798L16.3091 9.24255C16.8651 9.40913 17.2546 9.94351 17.2546 10.5428C17.2546 11.2784 16.6834 11.8733 15.976 11.8928V12.2562C15.976 12.4553 15.8159 12.6154 15.6168 12.6154H15.3767C15.1776 12.6154 15.0175 12.4553 15.0175 12.2562V11.8885C14.6822 11.8712 14.3577 11.7565 14.0873 11.5553C13.9661 11.4666 13.9531 11.2892 14.0613 11.1853L14.4139 10.85C14.4962 10.77 14.6195 10.7678 14.7168 10.8284C14.8337 10.9019 14.9635 10.9387 15.1019 10.9387H15.9435C16.1382 10.9387 16.2962 10.7613 16.2962 10.5428C16.2962 10.3654 16.188 10.2075 16.0344 10.162L14.6865 9.75745C14.1305 9.59087 13.7411 9.05649 13.7411 8.45721C13.7433 7.72163 14.3123 7.12668 15.0197 7.10721Z" fill="#02215A"/>
<path fill-rule="evenodd" clip-rule="evenodd" d="M17.8718 1.9546V0L13.434 2.56218L17.8718 5.12436V3.34086C18.8333 3.53466 19.4543 3.99868 19.8596 4.51826C20.3192 5.10753 20.5289 5.80611 20.5861 6.35358C20.6216 6.69379 20.9017 7 21.2855 7C21.6541 7 21.9873 6.69506 21.9514 6.288C21.884 5.52155 21.6026 4.53266 20.9363 3.67844C20.2847 2.84315 19.2918 2.17258 17.8718 1.9546Z" fill="#02215A"/>
</g>
<defs>
<clipPath id="clip0_346:980">
<rect width="24" height="21.5172" fill="white"/>
</clipPath>
</defs>
</svg>
