<svg width="20" height="20" viewBox="0 0 20 20" fill="none" xmlns="http://www.w3.org/2000/svg">
<path d="M2.90476 0C1.84762 0 1 0.847619 1 1.90476V17.1429C1 17.648 1.20068 18.1325 1.55789 18.4897C1.9151 18.8469 2.39959 19.0476 2.90476 19.0476H6.71429V17.2286L8.70476 15.2381H2.90476V13.3333H10.6095L12.5143 11.4286H2.90476V9.52381H14.419L16.2381 7.70476V5.71429L10.5238 0H2.90476ZM9.57143 1.42857L14.8095 6.66667H9.57143V1.42857ZM16.381 10.4762C16.3105 10.4746 16.2404 10.4873 16.1749 10.5135C16.1095 10.5397 16.05 10.5788 16 10.6286L15.0286 11.6L17.019 13.581L17.9905 12.619C18.1905 12.4095 18.1905 12.0667 17.9905 11.8667L16.7524 10.6286C16.7037 10.5797 16.6458 10.5411 16.582 10.5149C16.5182 10.4888 16.4499 10.4756 16.381 10.4762ZM14.4667 12.1619L8.61905 18.019V20H10.6L16.4571 14.1429L14.4667 12.1619Z" fill="#717788"/>
</svg>
