<svg width="25" height="25" viewBox="0 0 25 25" fill="none" xmlns="http://www.w3.org/2000/svg">
<path d="M12.75 10C15.5117 10 17.75 7.76172 17.75 5C17.75 2.23828 15.5117 0 12.75 0C9.98828 0 7.75 2.23828 7.75 5C7.75 7.76172 9.98828 10 12.75 10ZM16.25 11.25H15.5977C14.7305 11.6484 13.7656 11.875 12.75 11.875C11.7344 11.875 10.7734 11.6484 9.90234 11.25H9.25C6.35156 11.25 4 13.6016 4 16.5V18.125C4 19.1602 4.83984 20 5.875 20H19.625C20.6602 20 21.5 19.1602 21.5 18.125V16.5C21.5 13.6016 19.1484 11.25 16.25 11.25Z" fill="black"/>
</svg>
