<svg width="24" height="24" viewBox="0 0 24 24" fill="none" xmlns="http://www.w3.org/2000/svg">
<path fill-rule="evenodd" clip-rule="evenodd" d="M24 4C24 1.79086 22.2091 0 20 0H4C1.79086 0 0 1.79086 0 4V20C0 22.2091 1.79086 24 4 24H20C22.2091 24 24 22.2091 24 20V4ZM9.231 3.6755C10.086 3.23015 11.036 2.99838 12 3C13.324 3 14.546 3.428 15.538 4.1535C15.6452 4.22775 15.7772 4.25718 15.9057 4.23553C16.0343 4.21387 16.1494 4.14283 16.2263 4.03757C16.3033 3.9323 16.3361 3.80113 16.3177 3.67203C16.2993 3.54294 16.2313 3.42612 16.128 3.3465C14.9305 2.46962 13.4843 1.99789 12 2C10.8355 2 9.736 2.285 8.769 2.789C8.655 2.85223 8.5702 2.95748 8.53267 3.08232C8.49515 3.20716 8.50786 3.34173 8.56811 3.45733C8.62836 3.57293 8.73137 3.66044 8.8552 3.70119C8.97902 3.74194 9.11387 3.73273 9.231 3.6755ZM17.5175 4.692C17.4776 4.63883 17.4274 4.59416 17.37 4.5606C17.3126 4.52705 17.2491 4.50527 17.1832 4.49656C17.1173 4.48784 17.0503 4.49236 16.9862 4.50985C16.922 4.52734 16.862 4.55745 16.8096 4.59842C16.7573 4.63938 16.7136 4.69038 16.6812 4.74843C16.6487 4.80648 16.6282 4.87041 16.6208 4.93649C16.6134 5.00256 16.6192 5.06945 16.638 5.13324C16.6567 5.19704 16.688 5.25645 16.73 5.308C17.2044 5.9141 17.5574 6.6061 17.7695 7.346C17.8089 7.46996 17.8951 7.57367 18.0098 7.63513C18.1244 7.69659 18.2585 7.71094 18.3835 7.67516C18.5086 7.63937 18.6148 7.55626 18.6796 7.44346C18.7443 7.33066 18.7626 7.19705 18.7305 7.071C18.4832 6.20736 18.071 5.39958 17.5175 4.692ZM6.979 4.842C7.03262 4.87992 7.07824 4.92802 7.11326 4.98357C7.14829 5.03912 7.17202 5.10102 7.18312 5.16575C7.19422 5.23047 7.19246 5.29675 7.17794 5.36079C7.16342 5.42483 7.13642 5.48539 7.0985 5.539C6.38186 6.55062 5.99793 7.76026 6 9V15C6 15.1326 5.94732 15.2598 5.85355 15.3536C5.75979 15.4473 5.63261 15.5 5.5 15.5C5.36739 15.5 5.24021 15.4473 5.14645 15.3536C5.05268 15.2598 5 15.1326 5 15V9C5 7.4965 5.475 6.1025 6.282 4.961C6.35865 4.85279 6.47514 4.77947 6.60586 4.75715C6.73657 4.73484 6.87079 4.76536 6.979 4.842ZM19 9C19 8.86739 18.9473 8.74021 18.8536 8.64645C18.7598 8.55268 18.6326 8.5 18.5 8.5C18.3674 8.5 18.2402 8.55268 18.1464 8.64645C18.0527 8.74021 18 8.86739 18 9V15C18.0022 16.4008 17.5122 17.7578 16.6155 18.834C16.5307 18.936 16.4899 19.0675 16.502 19.1995C16.5142 19.3316 16.5783 19.4534 16.6803 19.5382C16.7822 19.6231 16.9137 19.6639 17.0458 19.6517C17.1779 19.6396 17.2997 19.5755 17.3845 19.4735C18.4305 18.2177 19.0022 16.6344 19 15V9ZM6.451 18.4235C6.50407 18.3848 6.56426 18.3569 6.62813 18.3414C6.69199 18.3259 6.75828 18.3232 6.8232 18.3334C6.88812 18.3435 6.95039 18.3664 7.00647 18.4007C7.06254 18.4349 7.11132 18.4799 7.15 18.533C7.87369 19.5257 8.88397 20.273 10.045 20.6745C10.6741 20.8908 11.3348 21.0008 12 21C12.1326 21 12.2598 21.0527 12.3536 21.1464C12.4473 21.2402 12.5 21.3674 12.5 21.5C12.5 21.6326 12.4473 21.7598 12.3536 21.8536C12.2598 21.9473 12.1326 22 12 22C11.2025 22 10.435 21.8665 9.719 21.62C8.36471 21.1519 7.18622 20.2803 6.342 19.1225C6.30323 19.0695 6.27529 19.0093 6.25979 18.9454C6.24428 18.8816 6.24151 18.8153 6.25163 18.7504C6.26176 18.6855 6.28457 18.6232 6.31878 18.5671C6.35299 18.511 6.39792 18.4622 6.451 18.4235ZM15.7325 20.9225C15.7906 20.8887 15.8413 20.8436 15.8816 20.7898C15.9219 20.736 15.9509 20.6746 15.9669 20.6093C15.9829 20.5441 15.9856 20.4762 15.9748 20.4099C15.964 20.3436 15.94 20.2801 15.9041 20.2233C15.8682 20.1664 15.8212 20.1174 15.766 20.0791C15.7107 20.0409 15.6483 20.0141 15.5825 20.0005C15.5167 19.9869 15.4488 19.9867 15.3829 20C15.317 20.0132 15.2545 20.0396 15.199 20.0775C14.6407 20.4302 14.0277 20.6877 13.385 20.8395C13.32 20.8535 13.2585 20.8804 13.204 20.9185C13.1496 20.9566 13.1032 21.0052 13.0678 21.0614C13.0323 21.1176 13.0084 21.1803 12.9975 21.2459C12.9865 21.3115 12.9887 21.3785 13.004 21.4432C13.0193 21.5079 13.0474 21.5689 13.0865 21.6226C13.1256 21.6764 13.1751 21.7217 13.232 21.7561C13.2889 21.7905 13.3521 21.8132 13.4178 21.8229C13.4836 21.8326 13.5506 21.829 13.615 21.8125C14.3765 21.6325 15.09 21.3285 15.7325 20.9225ZM7 9.118C7 6.3825 9.507 4.5 12 4.5C14.493 4.5 17 6.3825 17 9.1175V14.272C17 14.711 16.915 15.1785 16.675 15.553C16.418 15.954 15.9995 16.2165 15.445 16.2165C14.9035 16.2165 14.463 15.9665 14.171 15.589C13.8865 15.222 13.75 14.7475 13.75 14.272V9.6185C13.7514 9.13952 13.5659 8.67889 13.233 8.3345C13.073 8.16907 12.8814 8.03742 12.6696 7.94733C12.4579 7.85724 12.2302 7.81054 12 7.81C11.54 7.81 11.0965 7.997 10.767 8.335C10.4341 8.67939 10.2486 9.14002 10.25 9.619V15.427C10.25 16.762 10.918 17.997 12.414 18.5295C12.5378 18.5748 12.6387 18.6672 12.6948 18.7866C12.7508 18.9059 12.7574 19.0426 12.7132 19.1668C12.6689 19.291 12.5774 19.3927 12.4586 19.4498C12.3397 19.5069 12.2031 19.5147 12.0785 19.4715C10.1285 18.7775 9.25 17.1235 9.25 15.4265V9.619C9.24867 8.87923 9.53605 8.16813 10.051 7.637C10.3041 7.37591 10.607 7.16821 10.9418 7.02616C11.2765 6.88412 11.6364 6.81062 12 6.81C12.7335 6.81 13.4345 7.109 13.949 7.637C14.464 8.16813 14.7513 8.87923 14.75 9.619V14.2725C14.75 14.5665 14.836 14.8145 14.9615 14.9775C15.0795 15.13 15.2365 15.217 15.4455 15.217C15.6415 15.217 15.7505 15.142 15.833 15.0135C15.933 14.8585 16 14.6035 16 14.2725V9.1175C16 7.062 14.0765 5.5 12 5.5C9.9235 5.5 8 7.0615 8 9.1175V15.392C8 15.9235 8.0795 16.4535 8.2325 16.897C8.3885 17.3475 8.604 17.6645 8.844 17.8345C8.89755 17.8725 8.94308 17.9207 8.978 17.9763C9.01292 18.0319 9.03655 18.0939 9.04753 18.1586C9.05851 18.2234 9.05663 18.2897 9.042 18.3537C9.02737 18.4177 9.00027 18.4782 8.96225 18.5317C8.92423 18.5853 8.87604 18.6308 8.82043 18.6658C8.76481 18.7007 8.70286 18.7243 8.63811 18.7353C8.57337 18.7463 8.5071 18.7444 8.44308 18.7297C8.37906 18.7151 8.31855 18.688 8.265 18.65C7.792 18.315 7.4805 17.784 7.287 17.224C7.0915 16.6575 6.9995 16.0145 6.9995 15.3915L7 9.118ZM12 9C12.1326 9 12.2598 9.05268 12.3536 9.14645C12.4473 9.24021 12.5 9.36739 12.5 9.5V14.3935C12.5 15.5225 12.774 16.2765 13.234 16.75C13.691 17.221 14.414 17.5 15.5 17.5C15.6326 17.5 15.7598 17.5527 15.8536 17.6464C15.9473 17.7402 16 17.8674 16 18C16 18.1326 15.9473 18.2598 15.8536 18.3536C15.7598 18.4473 15.6326 18.5 15.5 18.5C14.2525 18.5 13.2255 18.1775 12.516 17.4465C11.81 16.7185 11.5 15.669 11.5 14.3935V9.5C11.5 9.36739 11.5527 9.24021 11.6464 9.14645C11.7402 9.05268 11.8674 9 12 9Z" fill="#02215A"/>
</svg>
