<svg width="64" height="64" viewBox="0 0 64 64" fill="none" xmlns="http://www.w3.org/2000/svg">
<rect x="0.5" y="0.5" width="63" height="63" rx="31.5" fill="white"/>
<path fill-rule="evenodd" clip-rule="evenodd" d="M38.393 25.5442C38.5571 25.7082 38.65 25.9297 38.65 26.1621V30.6078C38.534 30.6026 38.4173 30.6 38.3 30.6C34.0474 30.6 30.6 34.0474 30.6 38.3C30.6 40.5065 31.5281 42.4961 33.0151 43.9H20.275C19.791 43.9 19.4 43.509 19.4 43.025V20.275C19.4 19.791 19.791 19.4 20.275 19.4H31.8879C32.1203 19.4 32.3446 19.493 32.5086 19.6571L38.393 25.5442ZM36.6321 26.5641L31.486 21.418V26.5641H36.6321ZM25.875 32.7137C26.0528 32.9188 26.1416 33.2013 26.1416 33.5614C26.1416 33.8849 26.0528 34.1401 25.875 34.327C25.6973 34.5093 25.4535 34.6004 25.1436 34.6004C24.7198 34.6004 24.3916 34.466 24.1592 34.1971C23.9313 33.9237 23.8174 33.5272 23.8174 33.0076H21.5137C21.5137 33.951 21.778 34.7121 22.3067 35.2908C22.8399 35.8651 23.6032 36.2046 24.5967 36.3094V37.6903H25.6836V36.3162C26.5358 36.2342 27.208 35.9471 27.7002 35.4549C28.197 34.9627 28.4453 34.327 28.4453 33.5477C28.4453 33.0874 28.3679 32.6932 28.2129 32.3651C28.058 32.0369 27.8438 31.7498 27.5703 31.5037C27.2969 31.2576 26.9711 31.0389 26.5928 30.8475C26.2191 30.6515 25.8203 30.4647 25.3965 30.2869C24.9727 30.1046 24.6651 29.9155 24.4737 29.7196C24.2823 29.519 24.1865 29.2502 24.1865 28.9129C24.1865 28.5802 24.2686 28.3205 24.4326 28.1336C24.6013 27.9422 24.836 27.8465 25.1367 27.8465C25.474 27.8465 25.7337 27.9741 25.916 28.2293C26.0983 28.4845 26.1895 28.8491 26.1895 29.3231H28.5C28.5 28.4572 28.2608 27.744 27.7823 27.1834C27.3083 26.6183 26.6543 26.2742 25.8203 26.1512V24.6815H24.7334V26.1239C23.8675 26.2059 23.1748 26.4976 22.6553 26.9989C22.1358 27.4956 21.876 28.1291 21.876 28.8992C21.876 29.3595 21.9489 29.7515 22.0948 30.075C22.2406 30.3986 22.4502 30.6834 22.7237 30.9295C22.9971 31.1756 23.3229 31.3921 23.7012 31.5789C24.0795 31.7658 24.4919 31.9503 24.9385 32.1326C25.3851 32.3149 25.6973 32.5086 25.875 32.7137Z" fill="#0D4A87"/>
<path fill-rule="evenodd" clip-rule="evenodd" d="M32 38.4167C32 34.8729 34.8729 32 38.4167 32C41.9604 32 44.8333 34.8729 44.8333 38.4167C44.8333 41.9604 41.9604 44.8333 38.4167 44.8333C34.8729 44.8333 32 41.9604 32 38.4167ZM38.2978 35C38.8442 35 39.2872 35.443 39.2872 35.9894V37.4734H40.7711C41.3175 37.4734 41.7605 37.9164 41.7605 38.4628C41.7605 39.0092 41.3175 39.4522 40.7711 39.4522H39.2872V40.7713C39.2872 41.3177 38.8442 41.7607 38.2978 41.7607C37.7514 41.7607 37.3084 41.3177 37.3084 40.7713V39.4522H35.9893C35.4429 39.4522 34.9999 39.0092 34.9999 38.4628C34.9999 37.9164 35.4429 37.4734 35.9893 37.4734H37.3084V35.9894C37.3084 35.443 37.7514 35 38.2978 35Z" fill="#0D4A87"/>
<rect x="0.5" y="0.5" width="63" height="63" rx="31.5" stroke="#B6D8FF"/>
</svg>
